 <svg version="1.0" xmlns="http://www.w3.org/2000/svg" width="700.000000pt" height="700.000000pt" viewBox="0 0 700.000000 700.000000" preserveAspectRatio="xMidYMid meet">
<metadata>
Created by potrace 1.12, written by Peter Selinger 2001-2015
</metadata>
<g transform="translate(0.000000,700.000000) scale(0.100000,-0.100000)" fill="#000000" stroke="none">
<path d="M3188 5469 c-119 -28 -241 -127 -297 -241 -44 -89 -48 -163 -23 -478
17 -209 18 -247 6 -261 -34 -38 -1 -109 51 -109 32 0 65 33 65 65 0 15 -11 36
-25 49 -21 19 -25 33 -25 77 0 29 -7 141 -16 249 -19 234 -16 296 21 378 94
209 360 283 554 154 61 -40 132 -135 151 -200 12 -43 42 -400 43 -517 0 -44
-3 -95 -8 -113 -6 -25 -3 -37 10 -52 25 -28 79 -27 99 2 22 31 20 52 -9 86
-23 28 -25 40 -44 298 -20 291 -31 342 -89 426 -41 59 -110 122 -169 151 -85
43 -204 58 -295 36z"></path>
<path d="M4185 5219 c-44 -10 -147 -33 -230 -50 -82 -17 -153 -34 -156 -37 -6
-7 6 -206 19 -302 6 -47 10 -55 27 -53 11 1 64 5 118 8 53 4 97 11 97 16 0 6
-41 7 -104 3 -95 -6 -105 -5 -114 12 -5 10 -13 81 -17 156 l-7 138 23 9 c55
23 404 93 418 84 14 -9 38 -103 102 -398 41 -188 44 -218 27 -233 -9 -7 -59
-13 -129 -14 l-114 -3 -3 85 c-4 127 -22 125 -22 -2 0 -59 3 -109 8 -111 11
-7 277 19 291 27 13 8 12 16 -14 136 -7 36 -21 101 -30 145 -10 44 -25 112
-35 150 -10 39 -26 108 -34 153 -16 86 -22 103 -34 101 -4 0 -43 -9 -87 -20z"></path>
<path d="M3495 5069 c-44 -10 -165 -37 -270 -59 -104 -22 -200 -45 -213 -50
-23 -10 -23 -12 -16 -118 8 -131 15 -151 46 -146 13 2 128 13 256 25 127 13
232 27 232 32 0 10 -20 9 -278 -18 -84 -9 -170 -15 -190 -13 l-37 3 -8 99 c-6
77 -5 102 5 112 7 7 78 26 158 44 80 17 196 42 259 56 94 21 116 23 126 12 8
-8 16 -62 20 -141 7 -125 7 -128 -14 -134 -29 -7 -26 -23 4 -23 14 0 28 7 32
16 8 21 -13 304 -24 314 -4 4 -44 -1 -88 -11z"></path>
<path d="M2560 4866 c-102 -24 -230 -52 -285 -64 -54 -12 -103 -26 -108 -31
-4 -4 6 -66 23 -137 17 -71 38 -165 48 -209 l18 -80 42 -3 c25 -2 42 1 42 7 0
6 -13 11 -29 11 -17 0 -33 5 -37 11 -6 10 -27 99 -76 315 -6 28 -9 57 -6 65 6
15 522 134 555 127 15 -3 20 -18 26 -81 10 -89 6 -107 -23 -107 -11 0 -20 -4
-20 -10 0 -15 60 -12 66 3 3 8 1 61 -3 118 -7 94 -10 104 -28 106 -11 0 -103
-18 -205 -41z"></path>
<path d="M2580 4673 c-19 -3 -39 -9 -45 -15 -7 -7 9 -9 54 -4 35 3 77 6 92 6
16 0 29 5 29 10 0 10 -59 11 -130 3z"></path>
<path d="M2500 4611 c0 -5 7 -43 16 -85 8 -41 14 -90 12 -108 l-3 -33 -82 -9
c-46 -5 -83 -14 -83 -19 0 -11 181 1 194 13 11 11 -32 250 -45 250 -5 0 -9 -4
-9 -9z"></path>
<path d="M4210 4426 l-85 -11 -3 -45 c-1 -25 1 -218 5 -430 l8 -385 25 1 c64
2 284 25 289 30 3 3 -2 49 -12 102 -9 53 -33 187 -51 297 -49 287 -78 439 -85
446 -3 3 -44 0 -91 -5z m66 -37 c6 -11 26 -116 74 -389 12 -69 30 -172 41
-230 22 -120 23 -146 9 -155 -6 -4 -56 -11 -111 -17 -83 -9 -103 -8 -114 3
-10 11 -14 97 -17 399 l-3 385 40 6 c64 10 73 10 81 -2z"></path>
<path d="M2461 4249 c-35 -4 -120 -13 -189 -18 -69 -6 -129 -14 -133 -18 -4
-4 6 -69 22 -143 16 -74 45 -209 64 -300 61 -291 85 -403 91 -411 3 -5 22 -7
42 -4 187 24 284 36 325 37 26 1 47 5 47 8 0 3 -14 84 -30 180 -16 96 -49 288
-73 425 l-42 250 -30 1 c-17 1 -59 -2 -94 -7z m106 -94 c28 -139 114 -648 116
-687 l2 -42 -164 -18 c-135 -16 -166 -17 -177 -6 -16 17 -175 771 -165 781 11
11 239 35 316 33 l60 -1 12 -60z"></path>
<path d="M3685 4208 c-11 -7 -166 -78 -345 -160 -179 -81 -326 -151 -327 -155
-2 -4 67 -33 152 -62 86 -30 160 -60 164 -65 5 -6 41 -74 81 -151 39 -77 75
-141 78 -143 4 -1 47 130 95 290 49 161 100 327 113 368 32 99 31 102 -11 78z"></path>
<path d="M4545 3493 c-22 -2 -96 -10 -165 -19 -69 -9 -150 -19 -180 -23 l-55
-6 -5 -205 -5 -205 -180 -12 c-99 -7 -261 -19 -360 -28 -188 -17 -481 -39
-671 -51 l-111 -7 -6 24 c-3 13 -15 89 -28 169 -12 80 -26 150 -30 155 -5 7
-53 6 -151 -6 -79 -9 -149 -14 -155 -11 -7 2 -13 -2 -13 -9 0 -14 54 -275 109
-529 18 -80 35 -160 38 -178 3 -19 11 -36 17 -38 6 -2 94 14 196 36 102 23
228 50 280 61 52 11 136 29 185 40 50 11 171 38 270 59 99 21 263 57 365 80
102 22 248 54 325 70 77 17 219 47 315 68 l175 38 -3 39 c-4 65 -98 489 -108
490 -5 1 -27 0 -49 -2z m66 -168 c15 -71 36 -173 47 -225 16 -73 18 -98 9
-107 -7 -6 -46 -18 -87 -27 -107 -22 -436 -92 -565 -121 -1014 -223 -1360
-296 -1384 -293 -25 3 -27 9 -59 158 -91 423 -109 516 -103 522 12 12 241 32
252 21 5 -5 20 -73 34 -151 26 -157 35 -179 70 -188 14 -3 148 4 298 15 149
12 439 35 642 51 349 27 371 30 388 51 15 18 17 45 17 200 0 131 3 180 13 186
18 11 274 41 341 40 l60 -2 27 -130z"></path>
<path d="M3131 2246 c-89 -29 -121 -95 -121 -246 0 -112 20 -179 65 -219 42
-37 84 -46 194 -44 96 1 118 13 102 55 -9 24 -13 26 -48 17 -106 -24 -194 -2
-218 55 -20 47 -20 214 -1 261 24 57 52 68 162 63 93 -5 96 -5 107 19 7 16 7
27 0 34 -18 18 -192 21 -242 5z"></path>
<path d="M1307 2244 c-3 -3 15 -32 41 -63 26 -31 75 -95 109 -142 l62 -86 3
-104 3 -104 55 0 55 0 5 105 5 105 50 73 c28 40 71 103 97 139 26 37 45 70 42
75 -3 4 -33 8 -68 8 l-62 0 -59 -90 c-32 -49 -60 -90 -61 -90 -1 0 -32 41 -68
90 l-66 90 -68 0 c-38 0 -71 -3 -75 -6z"></path>
<path d="M2775 2118 c-36 -9 -103 -11 -160 -5 -11 1 -20 -4 -19 -10 1 -7 2
-92 3 -189 l1 -175 53 3 52 3 3 124 c1 69 7 130 13 137 6 7 34 14 62 16 l51 3
0 49 c0 27 -4 50 -9 52 -6 1 -28 -3 -50 -8z"></path>
<path d="M1850 2098 c-52 -35 -70 -79 -70 -168 0 -90 24 -151 68 -174 74 -38
192 -28 244 21 48 46 63 194 27 267 -26 53 -62 71 -152 74 -73 3 -86 1 -117
-20z m167 -88 c16 -32 16 -128 0 -160 -11 -21 -20 -25 -57 -25 -58 0 -72 24
-68 116 4 83 18 101 72 97 32 -2 43 -9 53 -28z"></path>
<path d="M2190 1986 c0 -192 21 -237 115 -252 45 -6 176 11 208 28 16 8 17 25
15 179 l-3 171 -52 2 -52 1 -3 -140 -3 -140 -46 -3 c-30 -2 -50 2 -57 11 -7 8
-13 65 -14 141 l-3 128 -52 2 -53 1 0 -129z"></path>
<path d="M3483 2100 c-52 -31 -66 -63 -71 -154 -5 -96 17 -162 64 -193 42 -27
173 -25 211 3 47 35 58 69 58 176 0 109 -13 139 -76 170 -48 25 -144 24 -186
-2z m171 -59 c35 -39 32 -195 -5 -232 -27 -27 -111 -27 -138 0 -37 37 -40 193
-5 232 13 14 31 19 74 19 43 0 61 -5 74 -19z"></path>
<path d="M3870 2106 l-45 -12 0 -174 0 -175 30 0 30 0 1 148 c0 117 4 151 15
158 25 16 95 10 120 -10 23 -18 24 -27 29 -158 l5 -138 30 0 30 0 3 108 c1 59
-2 124 -7 145 -13 46 -5 54 61 60 43 3 58 0 78 -16 24 -19 25 -26 30 -159 l5
-138 30 0 29 0 -3 140 c-3 159 -13 195 -62 221 -27 13 -46 15 -103 9 -74 -8
-89 -8 -196 -1 -36 3 -85 -1 -110 -8z"></path>
<path d="M4470 2107 l-45 -12 0 -245 0 -245 30 0 30 0 1 70 c2 91 1 90 21 74
26 -22 137 -17 171 7 46 34 62 79 62 172 0 143 -43 193 -167 191 -32 0 -78 -6
-103 -12z m177 -69 c21 -19 23 -30 23 -110 0 -81 -2 -91 -25 -113 -27 -28 -83
-33 -125 -12 -24 12 -25 18 -31 122 -3 62 -1 115 4 123 6 7 33 12 70 12 49 0
65 -4 84 -22z"></path>
<path d="M4853 2113 c-32 -4 -39 -16 -27 -46 4 -12 21 -14 88 -10 76 5 85 4
105 -16 13 -13 21 -32 19 -44 -3 -20 -8 -22 -91 -22 -87 0 -89 0 -118 -33 -25
-28 -29 -40 -29 -93 0 -77 22 -103 97 -113 54 -7 181 9 197 24 5 5 8 71 7 147
-3 154 -9 175 -66 199 -32 13 -108 16 -182 7z m185 -246 c2 -27 -2 -55 -9 -63
-14 -18 -130 -19 -147 -2 -16 16 -15 91 0 106 9 9 37 12 83 10 l70 -3 3 -48z"></path>
<path d="M5230 2107 l-45 -13 0 -174 0 -175 30 0 30 0 3 144 c2 93 7 150 14
159 15 17 122 12 141 -7 8 -8 14 -61 17 -154 l5 -142 30 0 30 0 0 152 0 153
-32 32 c-31 30 -38 33 -105 35 -40 1 -93 -4 -118 -10z"></path>
<path d="M5520 2103 c0 -5 4 -13 10 -19 12 -12 106 -286 115 -336 5 -26 0 -44
-19 -78 -34 -60 -33 -70 9 -70 33 0 37 3 64 63 55 119 171 417 171 441 0 12
-71 6 -74 -6 -35 -118 -93 -277 -100 -275 -4 1 -19 41 -33 87 -13 46 -34 109
-46 139 -21 53 -24 56 -59 59 -21 2 -38 -1 -38 -5z"></path>
</g>
</svg>